PathFileType	4	(X/Y/Z)	25_coords_data.trc
DataRate	CameraRate	NumFrames	NumMarkers	Units	OrigDataRate	OrigDataStartFrame	OrigNumFrames
30.0	30.0	4	21	m	30.0	1	65
Frame#	Time	THUMB_TIP	THUMB_IP	THUMB_MCP	THUMB_CMC	INDEX_TIP	INDEX_DIP	INDEX_PIP	INDEX_MCP	MIDDLE_TIP	MIDDLE_DIP	MIDDLE_PIP	MIDDLE_MCP	RING_TIP	RING_DIP	RING_PIP	RING_MCP	PINKY_TIP	PINKY_DIP	PINKY_PIP	PINKY_MCP	WRIST
X1	Y1	Z1	X2	Y2	Z2	X3	Y3	Z3	X4	Y4	Z4	X5	Y5	Z5	X6	Y6	Z6	X7	Y7	Z7	X8	Y8	Z8	X9	Y9	Z9	X10	Y10	Z10	X11	Y11	Z11	X12	Y12	Z12	X13	Y13	Z13	X14	Y14	Z14	X15	Y15	Z15	X16	Y16	Z16	X17	Y17	Z17	X18	Y18	Z18	X19	Y19	Z19	X20	Y20	Z20	X21	Y21	Z21
0	0.0	-0.01835499954223633	0.050846099853515625	0.9023359985351562	-0.018005800247192384	0.024557600021362303	0.9054039916992187	-0.036931900024414065	0.008787449836730956	0.9296680297851563	-0.05325519943237305	0.020494800567626953	0.953572021484375	-0.049014801025390624	0.011560500144958496	0.9076270141601562	-0.031455299377441404	0.014781999588012695	0.901635009765625	-0.030894899368286134	0.011688300132751465	0.8779140014648438	-0.07300599670410156	0.009509260177612305	0.8885809936523438	-0.021964399337768555	0.02949489974975586	0.9042620239257813	-0.03526129913330078	0.03342610168457031	0.9084010009765625	-0.030726100921630858	0.03252519989013672	0.8811849975585937	-0.07438990020751954	0.03341749954223633	0.886791015625	0.0	0.0	0.0	-0.03768500137329102	0.044724899291992186	0.9154390258789062	-0.031233800888061523	0.04999629974365234	0.8904140014648437	-0.07195619964599609	0.053061298370361325	0.8926630249023437	-0.03510449981689453	0.054855701446533206	0.9300859985351563	-0.02913839912414551	0.05578889846801758	0.916572021484375	-0.02952669906616211	0.06395859909057618	0.8996380004882812	-0.06343939971923829	0.06833820343017578	0.9062249755859375	-0.08640740203857422	0.035957801818847654	0.9756119995117187
1	0.03333333333333333	-0.018267900466918945	0.04963959884643555	0.9013319702148438	-0.018352300643920898	0.025286300659179688	0.9060130004882813	-0.03507709884643555	0.009933230400085449	0.9280139770507813	-0.0517781982421875	0.022000799179077147	0.9512659912109375	-0.04785689926147461	0.012805100440979003	0.9103419799804687	-0.031153799057006836	0.014265000343322754	0.900135009765625	-0.02992289924621582	0.01167710018157959	0.8779409790039062	-0.07151930236816406	0.0100068998336792	0.8881400146484375	-0.033949699401855465	0.028127799987792967	0.9125640258789063	-0.032737701416015626	0.030843000411987304	0.9080089721679687	-0.0300137996673584	0.03324909973144531	0.882458984375	-0.07472630310058594	0.033317501068115235	0.8874299926757813	-0.04161759948730469	0.04103459930419922	0.924239990234375	-0.03500270080566406	0.044105899810791015	0.9147069702148437	-0.029399799346923827	0.050499401092529296	0.8903259887695313	-0.07169439697265625	0.053446998596191404	0.8947969970703125	-0.04095539855957031	0.05461709976196289	0.9258179931640625	-0.02902370071411133	0.05638550186157226	0.9165800170898437	-0.029297800064086915	0.06376580047607422	0.9004660034179688	-0.06207920074462891	0.06822709655761719	0.9064669799804688	-0.08517579650878906	0.03562400054931641	0.9740269775390625
2	0.06666666666666667	-0.018146400451660157	0.04961439895629883	0.9012620239257813	-0.018304000854492186	0.02530690002441406	0.9058369750976563	-0.03491709899902344	0.009940779685974122	0.9279920043945312	-0.05168989944458008	0.022158700942993163	0.9512479858398437	-0.047647998809814456	0.01281369972229004	0.9102039794921875	-0.031166799545288087	0.014357799530029297	0.9003040161132813	-0.029903099060058592	0.01177589988708496	0.8779509887695313	-0.0713770980834961	0.010026100158691407	0.8881389770507813	-0.033982101440429686	0.02827630043029785	0.9129840087890625	-0.03268190002441406	0.030718599319458008	0.9079409790039062	-0.02999049949645996	0.0332682991027832	0.88247900390625	-0.07469629669189454	0.03335929870605469	0.8875360107421875	-0.04095890045166015	0.040967498779296875	0.9244810180664063	-0.0348405990600586	0.04411109924316406	0.9147100219726563	-0.029419099807739258	0.05050080108642578	0.8902249755859375	-0.0716613006591797	0.053390499114990234	0.8947869873046875	-0.04075719833374023	0.054330398559570316	0.9261890258789063	-0.028729000091552735	0.05646060180664063	0.9164099731445312	-0.029210899353027345	0.06379130172729493	0.9005159912109375	-0.062010398864746095	0.06826650238037109	0.90656201171875	-0.08505460357666016	0.03566260147094726	0.9742919921875
3	0.1	-0.018221200942993163	0.04954719924926758	0.9012009887695313	-0.018316099166870117	0.025164600372314452	0.9057349853515625	-0.034967700958251954	0.009983429908752442	0.9279910278320312	-0.05167509841918945	0.022106000900268555	0.9513900146484375	-0.04765530014038086	0.012830800056457519	0.9102260131835938	-0.03115049934387207	0.014383500099182128	0.9001589965820312	-0.02996120071411133	0.011788900375366212	0.8779420166015625	-0.07145130157470703	0.01008240032196045	0.888052978515625	-0.03451179885864258	0.028285999298095704	0.9127069702148437	-0.032842098236083986	0.03084280014038086	0.9080599975585938	-0.03006789970397949	0.033291801452636716	0.8824749755859375	-0.07474230194091797	0.03343999862670898	0.88735302734375	-0.041331600189208985	0.04085260009765625	0.9241420288085938	-0.03499769973754883	0.04408209991455078	0.9147659912109375	-0.02944779968261719	0.050484798431396485	0.890198974609375	-0.07155359649658204	0.05351050186157227	0.894656005859375	-0.041089599609375	0.05457379913330078	0.9255170288085938	-0.028854299545288085	0.05640330123901367	0.9165670166015625	-0.02925219917297363	0.06377159881591797	0.9005159912109375	-0.061995201110839844	0.0682603988647461	0.9065850219726562	-0.08496690368652343	0.0356688003540039	0.9742880249023438
